<svg xmlns="http://www.w3.org/2000/svg" xml:space="preserve" id="Layer_1" x="0" y="0" style="enable-background:new 0 0 568.9 113.6" version="1.1" viewBox="0 0 568.9 113.6"><style type="text/css">.st0{fill:#e12d2b}.st1{fill:#24272c}</style><path d="M94 110.6c-60.3 1.3-73.4-83.4-14.1-100.4 13.8-4.2 41.4-6.4 86.7-6.5 6.6 0 11.9 5.3 11.9 11.9s-5.3 11.9-11.8 12c-55.3.1-73.3 3.5-79.9 5.5-30.3 8.1-28.2 48.8 1.7 53.4 28.4 3.1 41.6-32.4 17.5-49.8 7.8-.8 20.1-1.5 29.6-1.8 3.6 6.1 5.9 13 6.6 20.1 3.3 28.3-19.9 54.8-48.2 55.6zM72.6 5.5C58.2 4.4 39.8 3.8 17 3.8c-6.6 0-11.9 5.3-11.9 11.9 0 6.6 5.3 11.9 11.8 12 10.2 0 19.2.1 27 .4 6.6-10.3 16.4-18 28.7-22.6z" class="st0"/><path d="M198.5 60.6c4.7 3 7.1 7.3 7.1 13 0 5-1.8 9-5.3 12.1-3.6 3.1-8 4.7-13.2 4.7H163V33h22.5c5.1 0 9.4 1.5 12.9 4.6 3.5 3 5.2 7 5.2 11.9-.1 4.5-1.8 8.2-5.1 11.1zm-13.1-15.3H176v10.2h9.4c1.5 0 2.7-.5 3.6-1.4.9-1 1.4-2.2 1.4-3.7s-.5-2.7-1.4-3.7c-1-.9-2.2-1.4-3.6-1.4zm1.6 32.8c1.6 0 3-.5 3.9-1.5 1-1 1.5-2.3 1.5-4s-.5-3-1.5-4-2.3-1.5-3.9-1.5h-11v11h11zM222.2 43.6c-1.5 1.4-3.2 2.2-5.2 2.2s-3.8-.7-5.2-2.2c-1.5-1.4-2.2-3.2-2.2-5.2s.7-3.8 2.2-5.2c1.4-1.4 3.2-2.2 5.2-2.2s3.8.7 5.2 2.2c1.4 1.4 2.2 3.2 2.2 5.2s-.7 3.8-2.2 5.2zm-11.3 46.8v-41h12.3v41h-12.3zM270.8 90.4h-13.9l-13.1-18.1v18.1h-12.3V33h12.3v34.4l12.3-18h14.4l-14.9 20.5 15.2 20.5z" class="st1"/><path d="M283 74.8c1.4 3.8 4.7 5.7 9.8 5.7 3.3 0 6-1 7.9-3.1l9.8 5.7c-4 5.6-10 8.5-17.9 8.5-6.9 0-12.4-2.1-16.5-6.2s-6.2-9.3-6.2-15.5c0-6.2 2-11.3 6.1-15.5 4.1-4.1 9.3-6.2 15.7-6.2 6 0 10.9 2.1 14.9 6.2s5.9 9.3 5.9 15.5c0 1.8-.2 3.4-.5 4.9h-29zm-.2-9.2h17.6c-1.2-4.3-4.1-6.5-8.7-6.5-4.8.1-7.7 2.2-8.9 6.5zM342.2 33c7.9 0 14.6 2.7 19.9 8.2 5.3 5.5 8 12.3 8 20.5s-2.7 15-8 20.5-12 8.2-19.9 8.2h-23V33h23zm0 44.8c4.5 0 8.2-1.5 11-4.4 2.8-2.9 4.2-6.8 4.2-11.7 0-4.9-1.4-8.8-4.2-11.7-2.8-2.9-6.5-4.4-11-4.4h-9.8v32.2h9.8zM387.2 74.8c1.4 3.8 4.7 5.7 9.8 5.7 3.3 0 6-1 7.9-3.1l9.8 5.7c-4 5.6-10 8.5-17.9 8.5-6.9 0-12.4-2.1-16.5-6.2s-6.2-9.3-6.2-15.5c0-6.2 2-11.3 6.1-15.5 4.1-4.1 9.3-6.2 15.7-6.2 6 0 10.9 2.1 14.9 6.2s5.9 9.3 5.9 15.5c0 1.8-.2 3.4-.5 4.9h-29zm-.2-9.2h17.6c-1.2-4.3-4.1-6.5-8.7-6.5-4.7.1-7.7 2.2-8.9 6.5zM462.4 90.4h-14l-13.1-18.1v18.1H423V33h12.3v34.4l12.3-18H462l-15 20.5 15.4 20.5zM490.1 48.3c4.4 0 8 1.5 11 4.5 2.9 3 4.4 7.2 4.4 12.5v25.2h-12.3V67c0-2.4-.7-4.3-2-5.5-1.3-1.3-3.1-1.9-5.1-1.9-2.4 0-4.2.7-5.6 2.1-1.4 1.4-2.1 3.5-2.1 6.3v22.4h-12.3V33h12.3v20.3c2.4-3.4 6.4-5 11.7-5zM548.2 85.3c-4.2 4.2-9.4 6.3-15.4 6.3-6.1 0-11.2-2.1-15.4-6.3-4.2-4.2-6.3-9.3-6.3-15.4s2.1-11.2 6.3-15.4c4.2-4.2 9.4-6.3 15.4-6.3 6.1 0 11.2 2.1 15.4 6.3 4.2 4.2 6.3 9.3 6.3 15.4s-2.1 11.2-6.3 15.4zm-22.1-8.4c1.8 1.8 4 2.7 6.7 2.7s4.9-.9 6.7-2.7c1.8-1.8 2.7-4.1 2.7-7 0-2.8-.9-5.2-2.7-7-1.8-1.8-4-2.7-6.7-2.7s-4.9.9-6.7 2.7c-1.8 1.8-2.7 4.1-2.7 7 0 2.9.9 5.2 2.7 7z" class="st1"/></svg>